<?xml version="1.0" encoding="UTF-8" standalone="no"?>
<!-- Created with Inkscape (http://www.inkscape.org/) -->

<svg
   version="1.1"
   id="svg1"
   width="1024"
   height="1024"
   viewBox="0 0 1024 1024"
   sodipodi:docname="logo1.svg"
   inkscape:version="1.4.3 (fcd0343856, 2026-01-01)"
   xmlns:inkscape="http://www.inkscape.org/namespaces/inkscape"
   xmlns:sodipodi="http://sodipodi.sourceforge.net/DTD/sodipodi-0.dtd"
   xmlns="http://www.w3.org/2000/svg"
   xmlns:svg="http://www.w3.org/2000/svg">
  <defs
     id="defs1" />
  <sodipodi:namedview
     id="namedview1"
     pagecolor="#ffffff"
     bordercolor="#999999"
     borderopacity="1"
     inkscape:showpageshadow="2"
     inkscape:pageopacity="0"
     inkscape:pagecheckerboard="0"
     inkscape:deskcolor="#d1d1d1"
     inkscape:zoom="0.78417969"
     inkscape:cx="511.36239"
     inkscape:cy="512"
     inkscape:window-width="1920"
     inkscape:window-height="1011"
     inkscape:window-x="0"
     inkscape:window-y="0"
     inkscape:window-maximized="1"
     inkscape:current-layer="g1" />
  <g
     inkscape:groupmode="layer"
     inkscape:label="Image"
     id="g1">
    <path
       style="fill:#3da4b6;stroke:none"
       d="m 325.89914,535.37609 v 156 c 0,4.80804 1.17837,11.38843 -0.16666,16 -1.08496,3.71985 -4.83014,6.60943 -6.66669,10 -4.01361,7.40979 -3.10562,18.84637 1.16669,26 6.30005,10.54895 21.73447,14.45129 32.66666,8.83337 4.6896,-2.40991 8.23144,-6.83337 14,-6.83337 35.79425,0 71.88815,1.50464 108,0 11.28854,-0.47034 22.70028,0 33.99998,0 3.0748,0 9.4226,1.89184 11.5,-1.16663 1.0017,-1.47473 0.5,-4.15283 0.5,-5.83337 v -15 -48 c 0,-5.1106 -1.7987,-14.40247 0.5,-19 1.6737,-3.34747 5.2649,-5.66028 7.1667,-9 1.4119,-2.47943 1.5739,-5.57715 4.3333,-7 4.7435,-2.4458 12.7594,-1.49048 18.00002,-2 4.2504,-0.41321 10.8995,-2.91541 15,-1.83338 4.7329,1.24903 8.3783,7.42005 13,9.66675 2.9292,1.42389 6.7362,2.25733 10,2.16663 2.0694,-0.0575 4.0944,-0.98743 6,0.16662 2.4816,1.50293 4.1415,4.57758 5.8333,6.83338 3.7732,5.03076 7.6414,10.03894 11.5,15 11.7646,15.12591 23.8493,30.18982 34.6667,46 h -50 -30 -22.00002 c -2.5003,0 -6.7705,-0.81574 -9,0.5 -2.368,1.39758 -2,4.15143 -2,6.5 0,5.33154 -0.074,10.669 0,16 0.031,2.25427 -0.1233,4.79468 2.1667,6 2.8142,1.48108 8.6141,0 11.83332,0 h 30 50 c 6.7859,0 16.5291,-1.81055 23,0.16662 5.2103,1.59205 8.1518,7.11921 14,8.5 10.2631,2.42328 21.5612,-0.87469 27.6667,-9.66662 5.1292,-7.38599 6.1341,-18.83826 2.1666,-27 -1.7049,-3.50733 -5.5504,-6.34705 -6.6666,-10 -1.3055,-4.27258 -0.1667,-10.52954 -0.1667,-15 v -157 h 60 14 c 1.7423,0 4.3178,0.47534 5.5,-1.16663 3.2381,-4.49743 -4.9584,-10.29175 -7.5,-12.83337 l -32,-32 c -45.3289,-45.32892 -91.6512,-89.65119 -137,-135 -20.5044,-20.50446 -41.5417,-40.54175 -62.00002,-61 l -15,-15 c -1.8493,-1.84931 -4.0783,-5 -7,-5 -2.9665,0 -5.2948,3.24261 -7.3333,5 -5.1362,4.42779 -9.8664,9.19977 -14.66668,14 -18.71421,18.71423 -36.98413,38.15191 -56.33335,56.16669 -48.47769,45.13446 -94.79675,92.96344 -141.66665,139.83331 -10.99866,10.99866 -22.10648,21.94855 -33,33 -2.37485,2.4093 -10.63161,7.93664 -8.5,12 2.16147,4.1203 15.4364,2 19.5,2 h 61 m 165.99998,-205 v 174 c -8.25313,-4.77814 -16.17415,-14.1742 -22.99998,-21 -2.50373,-2.50372 -7.15833,-5.66895 -8.5,-9 -0.63022,-1.5647 0.28238,-3.43311 0.5,-5 0.50836,-3.66016 0.52508,-7.36426 -0.33335,-11 -1.05154,-4.45355 -7.20282,-9.52814 -6.33331,-14 0.98074,-5.04395 5.31476,-10.37244 7.5,-15 4.091,-8.66333 7.72852,-17.45703 12,-26 3.18012,-6.36023 4.99283,-14.81275 -3.83334,-18 -6.98691,-2.52307 -9.81723,5.30115 -12.16666,10 -5.11026,10.22052 -9.5564,20.77942 -14.66669,31 -1.56585,3.13171 -2.59716,9.35187 -5.5,11.5 -1.83703,1.35943 -5.50848,1.08398 -7.66665,1.83331 -5.09119,1.76776 -9.40113,5.39179 -12.66666,9.66669 -2.86398,3.7492 -4.46011,8.37512 -5.16669,13 -0.3732,2.44269 0.56592,5.43408 -1.33331,7.33331 -2.53162,2.53162 -6.76568,4.00128 -9.83334,5.83338 -6.27893,3.74987 -12.58304,7.52417 -19,11 -10.66098,5.77465 -20.79502,14.82019 -32,19.33331 -3.16104,1.27319 -7.63382,0.5 -11,0.5 -8.05402,0 -17.26679,0.62799 -25,-1 l 19,-19 35,-35 46,-45 44.83334,-44.33331 21.16666,-20.66669 11.99998,-11 m 31,0 129.00002,127 31.1667,30.66669 16.8333,18.33331 c -11.5865,0 -25.8738,2.22088 -37,-1.33331 -3.9047,-1.24732 -7.4973,-4.24146 -11,-6.33338 -7.9342,-4.73852 -15.8615,-9.75836 -24,-14.16662 -5.7461,-3.11249 -11.2033,-6.94062 -17,-10 -2.6979,-1.42389 -7.6552,-2.88654 -9.5,-5.5 -1.4493,-2.05329 -0.3268,-6.23523 -0.8333,-8.66669 -1.0256,-4.92316 -3.3628,-9.30188 -6.8334,-13 -2.8148,-2.99939 -6.9066,-5.46686 -10.8333,-6.66669 -2.464,-0.75287 -6.5588,-0.2735 -8.6667,-1.83331 -2.8724,-2.12561 -4.3204,-9.26917 -5.6666,-12.5 -3.918,-9.4032 -8.5156,-18.52124 -12.3334,-28 -2.2003,-5.46289 -5.5806,-14.20221 -13.33332,-11.83331 -3.7216,1.13714 -7.2193,5.854 -6.6667,9.83331 0.3974,2.86078 2.3136,5.48743 3.5,8 2.3235,4.92023 4.0658,10.05261 6.3334,15 2.87832,6.27991 5.49712,12.59314 8.16662,19 1.1693,2.80621 3.6667,5.84265 3.6667,9 0,4.49982 -4.5846,9.41699 -5.6667,14 -0.951,4.02807 1.4624,8.35321 0.5,12 -1.492,5.65399 -10.75472,11.92145 -14.83332,16 -4.5528,4.55285 -10.3712,13.30218 -17,14 l 1,-127 v -32 l 1,-14 m 74.00002,266 -2,-15 -2,-22 -7,-71 c 1.7181,-0.99469 3.9547,-3.58148 6,-3.66669 4.2821,-0.1784 11.3549,6.20703 15,8.33338 10.9591,6.39282 22.0734,12.64105 33,19.16662 4.0396,2.41254 14.4266,6.07752 15,11.16669 0.7909,7.0188 -8.7798,15.1358 -12.8333,20 -10.481,12.57721 -20.4752,25.58404 -31.1667,38 -4.4402,5.15637 -8.0497,11.55505 -14,15 m -177,-110.83331 c 2.15997,-0.45636 3.86468,0.53314 4,2.83331 0.28531,4.8501 -2.23294,11.198 -3.16666,16 -3.3735,17.34936 -7.71115,34.8446 -12,52 -1.01883,4.07532 -1.28888,16.17554 -5.83334,17.66662 -4.44651,1.45905 -8.80756,-6.83569 -11.16666,-9.66662 -8.12381,-9.7486 -16.46463,-19.31885 -24.66669,-29 -2.4859,-2.93421 -8.22726,-7.81769 -8.16665,-12 0.0632,-4.36078 10.69461,-8.35925 14,-10.33331 l 32,-19 c 4.33951,-2.59168 10.03341,-7.45075 15,-8.5 m 27,3 c 2.6279,-0.073 4.3045,1.94311 6.16665,3.5 4.55625,3.80932 8.63361,8.1336 12.83335,12.33331 4.992,4.992 14.53882,10.53924 17.5,17 1.27173,2.77466 -1.22528,6.17419 -1.5,9 -0.23856,2.45386 0.74997,5.7431 -0.5,8 -1.5697,2.83423 -5.95276,4.49365 -8.5,6.33337 -7.56504,5.46363 -15.42703,10.53064 -23,16 -5.62003,4.05884 -11.37741,7.93921 -17,12 -2.02106,1.4596 -5.1937,5.052 -8,4.5 -2.92612,-0.57568 -1.52591,-3.98584 -1.16666,-5.83337 0.98303,-5.05554 2.31857,-9.99634 3.5,-15 4.06839,-17.23071 8.28937,-34.63086 11.66666,-52 0.97348,-5.00653 1.19684,-15.64435 8,-15.83331 m 131,107.83331 c -5.3539,-3.09961 -8.8907,-8.44812 -13,-13 -8.3377,-9.23572 -17.79032,-17.50665 -25.83332,-27 -2.649,-3.12671 -10.3845,-8.93604 -10.6667,-13 -0.2417,-3.47992 2.5,-7.3952 2.5,-11 0,-3.00208 -2.6726,-7.0885 -1.5,-10 1.0645,-2.64282 4.5259,-5.02588 6.5,-7 l 15.00002,-15 c 3.0256,-3.02558 10.1423,-13.26062 15,-11.66669 2.9334,0.96246 2.9647,4.12323 3,6.66669 0.075,5.40851 0.3003,11.68738 1.3333,17 1.9592,10.07593 1.6726,20.77502 2.6667,31 1.7024,17.51013 5,35.36181 5,53 m -222,-47 23.16665,27 8.33335,11 -1.16666,5 -0.33334,11 4.66665,15 -10.5,19 -24.16665,46 h -1 v -98 -26 l 1,-10 m 303,3 v 14 32 l -1,100 -10.1667,-12 -26.1666,-34 -11.5,-16 2.8333,-12 -1.5,-16 12.1667,-15 20.3333,-25 13,-16 h 2 m -168.00002,2.16662 c 4.0108,-0.61273 9.7882,3.7981 14,4.5 3.6309,0.60517 8.7082,-2.83789 12,-1.16662 3.1827,1.61584 6.4149,6.91492 9,9.5 8.5324,8.53235 16.4888,17.48877 25.00002,26 3.537,3.53699 6.5623,7.41278 10,11 1.6412,1.71252 4.615,3.64892 5.3333,6 0.7791,2.54986 -1.9409,7.05932 -4.3333,7.83337 -7.2837,2.35645 -16.41532,1.02515 -24.00002,2.5 -2.7933,0.54309 -7.2937,1.66553 -10,0.16663 -2.0884,-1.15668 -3.2636,-3.88941 -5,-5.5 -3.2623,-3.02588 -8.5156,-5.56403 -13,-6 -4.741,-0.46094 -9.8081,-0.0537 -14,2.33337 -2.8579,1.62744 -5.5857,5.47693 -8.99998,5.66663 -3.52616,0.19592 -7.82202,-2.43079 -11,-3.66663 -9.64459,-3.75073 -19.40717,-7.13623 -29,-11 -2.80762,-1.13086 -9.66532,-2.22046 -11.5,-4.66675 -4.26752,-5.68994 7.34616,-10.5993 10.5,-12.83325 9.59979,-6.79992 19.45886,-13.27588 29,-20.16675 4.19989,-3.0332 10.77087,-9.70105 15.99998,-10.5 m -9.99998,80.83338 -11,8.33337 -19,11 -61,35.83325 -25,13.83338 14.83334,-28 15.83331,-30 12.33335,-21.83338 8,-1.5 13,-7.16662 14,4.83337 38,14.66663 m 10.99998,81 H 382.89914 l 26,-16.16663 56,-32.83337 19,-11.66663 7.49998,-1 0.5,16.66663 z"
       id="path1" />
  </g>
</svg>
